<svg width="24" height="24" viewBox="0 0 24 24" fill="none" xmlns="http://www.w3.org/2000/svg">
<path d="M22 20.0006V12.1746C22.0001 11.6302 21.889 11.0914 21.6735 10.5914C21.458 10.0913 21.1428 9.64056 20.747 9.26664L13.374 2.29864C13.0027 1.94757 12.511 1.75195 12 1.75195C11.489 1.75195 10.9973 1.94757 10.626 2.29864L3.253 9.26664C2.85722 9.64056 2.54195 10.0913 2.3265 10.5914C2.11104 11.0914 1.99994 11.6302 2 12.1746V20.0006C2 20.5311 2.21071 21.0398 2.58579 21.4149C2.96086 21.7899 3.46957 22.0006 4 22.0006H20C20.5304 22.0006 21.0391 21.7899 21.4142 21.4149C21.7893 21.0398 22 20.5311 22 20.0006Z" stroke="#C8C8C8" stroke-width="2" stroke-linecap="round" stroke-linejoin="round"/>
</svg>
