<svg width="28" height="28" viewBox="0 0 28 28" fill="none" xmlns="http://www.w3.org/2000/svg">
<path fill-rule="evenodd" clip-rule="evenodd" d="M19.0458 17.3822L25.3224 23.6588C25.543 23.8796 25.6669 24.179 25.6668 24.4911C25.6667 24.8032 25.5426 25.1025 25.3218 25.3231C25.1011 25.5437 24.8017 25.6676 24.4896 25.6675C24.1775 25.6674 23.8782 25.5433 23.6576 25.3225L17.3809 19.0458C15.5046 20.4991 13.1451 21.183 10.7824 20.9584C8.41974 20.7338 6.23137 19.6175 4.6625 17.8367C3.09362 16.0559 2.26209 13.7443 2.33706 11.3721C2.41203 8.99998 3.38788 6.74549 5.06607 5.06729C6.74427 3.3891 8.99876 2.41325 11.3709 2.33828C13.743 2.26331 16.0547 3.09484 17.8355 4.66372C19.6163 6.23259 20.7326 8.42096 20.9572 10.7836C21.1818 13.1463 20.4979 15.5058 19.0446 17.3822H19.0458ZM11.6666 18.6667C13.5231 18.6667 15.3036 17.9292 16.6163 16.6164C17.9291 15.3036 18.6666 13.5232 18.6666 11.6667C18.6666 9.81014 17.9291 8.02966 16.6163 6.71691C15.3036 5.40415 13.5231 4.66665 11.6666 4.66665C9.81008 4.66665 8.02961 5.40415 6.71685 6.71691C5.4041 8.02966 4.6666 9.81014 4.6666 11.6667C4.6666 13.5232 5.4041 15.3036 6.71685 16.6164C8.02961 17.9292 9.81008 18.6667 11.6666 18.6667Z" fill="#C8C8C8"/>
</svg>
